<?xml version="1.0" encoding="utf-8"?>

<!-- Uploaded to: SVG Repo, www.svgrepo.com, Generator: SVG Repo Mixer Tools -->
<svg version="1.1" id="Icons" xmlns="http://www.w3.org/2000/svg" xmlns:xlink="http://www.w3.org/1999/xlink" 
	 viewBox="0 0 32 32" xml:space="preserve">
<style type="text/css">
	.st0{fill:none;stroke:#000000;stroke-width:2;stroke-linecap:round;stroke-linejoin:round;stroke-miterlimit:10;}
</style>
<path d="M30,11H19.5c-0.4,0-0.7,0.2-0.9,0.6L17.4,14h-2.8l0.8-1.6c0.2-0.3,0.1-0.7,0-1c-0.2-0.3-0.5-0.5-0.9-0.5h-4.2
	c-4.9,0-8.9,3.7-9.3,8.4c-0.2,2.5,0.7,4.9,2.4,6.8C5.1,28,7.5,29,10,29c2.5,0,4.9-1,6.6-2.9c3.7-4,8.4-6.8,13.7-8.2
	c0.4-0.1,0.7-0.5,0.7-1v-5C31,11.4,30.6,11,30,11z M10,24c-2.2,0-4-1.8-4-4s1.8-4,4-4s4,1.8,4,4S12.2,24,10,24z"/>
<path d="M17,8c0.6,0,1-0.4,1-1V4c0-0.6-0.4-1-1-1s-1,0.4-1,1v3C16,7.6,16.4,8,17,8z"/>
<path d="M13.5,8.9c0.2,0.2,0.5,0.3,0.7,0.3s0.5-0.1,0.7-0.3c0.4-0.4,0.4-1,0-1.4l-2.1-2.1c-0.4-0.4-1-0.4-1.4,0s-0.4,1,0,1.4
	L13.5,8.9z"/>
<path d="M19.8,9.2c0.3,0,0.5-0.1,0.7-0.3l2.1-2.1c0.4-0.4,0.4-1,0-1.4s-1-0.4-1.4,0l-2.1,2.1c-0.4,0.4-0.4,1,0,1.4
	C19.3,9.1,19.6,9.2,19.8,9.2z"/>
</svg>